<?xml version="1.0" encoding="UTF-8"?>
<svg id="_레이어_1" data-name="레이어_1" xmlns="http://www.w3.org/2000/svg" version="1.1" viewBox="0 0 125 125">
  <!-- Generator: Adobe Illustrator 30.1.0, SVG Export Plug-In . SVG Version: 2.1.1 Build 136)  -->
  <defs>
    <style>
      .st0 {
        fill-rule: evenodd;
      }
    </style>
  </defs>
  <path class="st0" d="M66.65,21.15c6.6-8.7,15.7-8.7,15.7-8.7,0,0,1.4,8.1-5.2,16-7,8.4-14.9,7-14.9,7,0,0-1.5-6.6,4.4-14.3Z"/>
  <path class="st0" d="M63.15,41.15c3.4,0,9.7-4.6,17.8-4.6,14.1,0,19.6,10,19.6,10,0,0-10.8,5.5-10.8,18.9s13.5,20.4,13.5,20.4c0,0-9.4,26.5-22.1,26.5s-10.4-3.9-16.5-3.9-12.5,4.1-16.6,4.1c-11.6,0-26.3-25.1-26.3-45.4s12.4-30.3,24.1-30.3,13.5,4.4,17.4,4.4l-.1-.1Z"/>
</svg>