<?xml version="1.0" encoding="UTF-8"?>
<svg id="_레이어_1" data-name="레이어_1" xmlns="http://www.w3.org/2000/svg" version="1.1" viewBox="0 0 125 125">
  <!-- Generator: Adobe Illustrator 30.1.0, SVG Export Plug-In . SVG Version: 2.1.1 Build 136)  -->
  <defs>
    <style>
      .st0 {
        fill: #ea4335;
      }

      .st0, .st1, .st2, .st3 {
        fill-rule: evenodd;
      }

      .st1 {
        fill: #4285f4;
      }

      .st2 {
        fill: #fbbc05;
      }

      .st3 {
        fill: #34a853;
      }
    </style>
  </defs>
  <path class="st1" d="M111.5,63.5c0-3.5-.3-7-.9-10.2h-47.1v19.3h26.9c-1.2,6.2-4.7,11.5-10,15.1v12.5h16.2c9.5-8.7,14.9-21.5,14.9-36.7h0Z"/>
  <path class="st3" d="M63.5,112.4c13.5,0,24.8-4.5,33.1-12.1l-16.2-12.5c-4.5,3-10.2,4.8-16.9,4.8-13,0-24-8.8-28-20.6h-16.7v13c8.2,16.3,25.1,27.5,44.7,27.5h0v-.1Z"/>
  <path class="st2" d="M35.5,71.9c-1-3-1.6-6.2-1.6-9.5s.6-6.5,1.6-9.5v-13h-16.7c-3.4,6.7-5.3,14.4-5.3,22.5s1.9,15.7,5.3,22.5l16.7-13h0Z"/>
  <path class="st0" d="M63.5,32.3c7.3,0,13.9,2.5,19.1,7.5l14.3-14.3c-8.7-8.1-20-13-33.5-13-19.5,0-36.5,11.2-44.7,27.5l16.7,13c3.9-11.8,15-20.6,28-20.6h0l.1-.1Z"/>
</svg>