<?xml version="1.0" encoding="UTF-8"?>
<svg id="_레이어_1" data-name="레이어_1" xmlns="http://www.w3.org/2000/svg" version="1.1" xmlns:xlink="http://www.w3.org/1999/xlink" viewBox="0 0 125 125">
  <!-- Generator: Adobe Illustrator 30.1.0, SVG Export Plug-In . SVG Version: 2.1.1 Build 136)  -->
  <defs>
    <style>
      .st0 {
        fill: url(#_무제_그라디언트);
        fill-rule: evenodd;
      }
    </style>
    <linearGradient id="_무제_그라디언트" data-name="무제 그라디언트" x1="2.32" y1="-27.77" x2="99.64" y2="90.72" gradientTransform="translate(0 108) scale(1 -1)" gradientUnits="userSpaceOnUse">
      <stop offset="0" stop-color="#ffc107"/>
      <stop offset=".51" stop-color="#f44336"/>
      <stop offset="1" stop-color="#9c27b0"/>
    </linearGradient>
  </defs>
  <path class="st0" d="M36.86,12.5l18.23,23.33h28.56l-18.23-23.33h-28.56ZM112.5,35.83h-16.16l-18.23-23.33h11.06c12.89,0,23.33,10.45,23.33,23.33ZM42.4,35.83L25.9,14.71c-7.92,3.73-13.4,11.79-13.4,21.12h29.9ZM12.5,89.17v-43.33h100v43.33c0,12.89-10.45,23.33-23.33,23.33h-53.33c-12.89,0-23.33-10.45-23.33-23.33ZM35.83,2.5C17.42,2.5,2.5,17.42,2.5,35.83v53.33c0,18.41,14.92,33.33,33.33,33.33h53.33c18.41,0,33.33-14.92,33.33-33.33v-53.33c0-18.41-14.92-33.33-33.33-33.33h-53.33ZM84.17,78.72c2.22-1.28,2.22-4.49,0-5.77l-30-17.32c-2.22-1.28-5,.32-5,2.89v34.64c0,2.57,2.78,4.17,5,2.89l30-17.32Z"/>
</svg>