<?xml version="1.0" encoding="UTF-8"?>
<svg id="_레이어_1" data-name="레이어_1" xmlns="http://www.w3.org/2000/svg" version="1.1" xmlns:xlink="http://www.w3.org/1999/xlink" viewBox="0 0 125 125">
  <!-- Generator: Adobe Illustrator 30.1.0, SVG Export Plug-In . SVG Version: 2.1.1 Build 136)  -->
  <defs>
    <style>
      .st0 {
        fill: none;
      }

      .st1 {
        clip-path: url(#clippath-1);
      }

      .st2 {
        fill: #381e1e;
      }

      .st3 {
        clip-path: url(#clippath-3);
      }

      .st4 {
        fill: #eed823;
      }

      .st5 {
        fill: #ffe600;
      }

      .st6 {
        clip-path: url(#clippath-2);
      }

      .st7 {
        clip-path: url(#clippath);
      }
    </style>
    <clipPath id="clippath">
      <path class="st0" d="M28,45.88c-3,0-3,5.25,0,5.25h5.13v17.5c0,2.37,5.37,2.5,5.37,0v-17.13s1.75-.37,5.12-.37c3.12,0,3.12-5.38,0-5.38h-15.5l-.12.13Z"/>
    </clipPath>
    <clipPath id="clippath-1">
      <path class="st0" d="M53.25,52.5l2.87,8.87h-5.88l3.12-8.87h-.12ZM50,48.25c-1.25,2.75-5.75,15.88-7.38,19.38-1.13,2.5,3.63,4.5,4.75,2l1-3.63h9.38s-.37.13.88,3.38c1,2.62,5.88.88,4.88-1.88-1.37-3.75-6.37-17.5-7.38-19.38-.37-.88-1.88-1.5-3.38-1.5s-2.38.5-2.87,1.5l.13.12Z"/>
    </clipPath>
    <clipPath id="clippath-2">
      <path class="st0" d="M65.62,49.12v18.75s-.37,2.87,2,2.87h10.25c2.37,0,2.37-5.12,0-5.12h-6.75v-16.5c0-1.5-1.37-2.37-2.75-2.37s-2.75.75-2.75,2.37Z"/>
    </clipPath>
    <clipPath id="clippath-3">
      <path class="st0" d="M81.13,48.38v20.88c0,2,5.25,2,5.25,0v-7l1.5-1.25,6.75,9.25c1.37,1.75,5.62-1.5,4.25-3.25l-7.12-9.38s4.88-5.25,6.75-7.12c1.13-1.13-2.38-4.63-3.5-3.5-1.13,1.13-8.75,8.75-8.75,8.75v-7.37c0-1-1.25-1.5-2.5-1.5s-2.75.5-2.75,1.62l.12-.12Z"/>
    </clipPath>
  </defs>
  <rect class="st5" width="125" height="125"/>
  <path class="st2" d="M62.5,19.5c-27.13,0-49.12,17.37-49.12,38.75s9.38,26.13,23.25,33c-1,3.87-3.75,13.87-4.25,16-.62,2.62,1,2.62,2,1.88.88-.62,13.5-9.13,18.88-12.88,3,.5,6,.62,9.12.62,27.13,0,49.12-17.38,49.12-38.75s-22-38.75-49.12-38.75"/>
  <g>
    <g>
      <path class="st4" d="M28,45.88c-3,0-3,5.25,0,5.25h5.13v17.5c0,2.38,5.37,2.5,5.37,0v-17.13s1.75-.37,5.12-.37c3.12,0,3.12-5.37,0-5.37h-15.5l-.12.12Z"/>
      <g class="st7">
        <rect class="st5" x="25" y="45.88" width="21.75" height="25.25"/>
      </g>
    </g>
    <g>
      <path class="st5" d="M53.25,52.5l2.87,8.87h-5.88l3.12-8.87h-.12ZM50,48.25c-1.25,2.75-5.75,15.88-7.38,19.38-1.13,2.5,3.63,4.5,4.75,2l1-3.63h9.38s-.37.12.88,3.38c1,2.62,5.88.88,4.88-1.88-1.37-3.75-6.37-17.5-7.38-19.38-.37-.88-1.88-1.5-3.38-1.5s-2.38.5-2.87,1.5"/>
      <g class="st1">
        <rect class="st4" x="41.62" y="46.75" width="23" height="25.37"/>
      </g>
    </g>
    <g>
      <path class="st4" d="M65.62,49.12v18.75s-.37,2.87,2,2.87h10.25c2.37,0,2.37-5.12,0-5.12h-6.75v-16.5c0-1.5-1.37-2.38-2.75-2.38s-2.75.75-2.75,2.38"/>
      <g class="st6">
        <rect class="st5" x="65.12" y="46.75" width="15.12" height="24"/>
      </g>
    </g>
    <g>
      <path class="st4" d="M81.13,48.38v20.88c0,2,5.25,2,5.25,0v-7l1.5-1.25,6.75,9.25c1.37,1.75,5.62-1.5,4.25-3.25l-7.12-9.38s4.88-5.25,6.75-7.13c1.13-1.13-2.38-4.63-3.5-3.5l-8.75,8.75v-7.38c0-1-1.25-1.5-2.5-1.5s-2.75.5-2.75,1.62"/>
      <g class="st3">
        <rect class="st5" x="81.13" y="45.88" width="19.25" height="26.25"/>
      </g>
    </g>
  </g>
</svg>