<?xml version="1.0" encoding="UTF-8"?>
<svg id="_레이어_1" data-name="레이어_1" xmlns="http://www.w3.org/2000/svg" version="1.1" viewBox="0 0 400 92.66">
  <!-- Generator: Adobe Illustrator 30.1.0, SVG Export Plug-In . SVG Version: 2.1.1 Build 136)  -->
  <defs>
    <style>
      .st0 {
        fill: #950101;
      }
    </style>
  </defs>
  <g>
    <path d="M73.61,0c10.42,0,19.05,8.49,19.05,19.05v54.57c0,10.55-8.62,19.05-19.05,19.05H19.05c-10.55,0-19.05-8.49-19.05-19.05V19.05C0,8.49,8.49,0,19.05,0h54.57ZM19.95,72.59h52.51V20.08H19.95v52.51Z"/>
    <path d="M179.28,0h20.21v92.66h-20.59l-52.12-62.03v62.03h-19.95V0h20.59l51.87,61.77V0Z"/>
    <path d="M400,49.81v19.82h-12.35v23.04h-19.69v-23.04h-55.47v-17.63L370.01,0h17.63v49.81h12.35ZM344.53,49.81h23.42v-19.05l-23.42,19.05Z"/>
  </g>
  <rect class="st0" x="214.16" y="36.29" width="85.58" height="20.1"/>
  <rect class="st0" x="214.16" width="85.58" height="20.1"/>
  <rect class="st0" x="214.18" y="72.4" width="85.58" height="20.1"/>
</svg>