<?xml version="1.0" encoding="UTF-8"?>
<svg id="_레이어_1" data-name="레이어_1" xmlns="http://www.w3.org/2000/svg" version="1.1" viewBox="0 0 125 125">
  <!-- Generator: Adobe Illustrator 30.1.0, SVG Export Plug-In . SVG Version: 2.1.1 Build 136)  -->
  <defs>
    <style>
      .st0 {
        fill: red;
        fill-rule: evenodd;
      }
    </style>
  </defs>
  <path class="st0" d="M112.12,14.63c-6.58-11.14-22.01-15.44-34.52-9.58L22.79,31.15c-12.41,5.86-17.26,19.74-10.68,30.99,4.42,7.53,12.84,11.92,21.68,12.22l-10.25,4.89c-12.41,5.86-17.26,19.84-10.68,30.98,6.58,11.14,22.01,15.44,34.52,9.58l54.81-26.1c12.51-5.86,17.26-19.74,10.68-30.99-4.42-7.53-12.84-11.92-21.69-12.22l10.25-4.89c12.52-5.86,17.26-19.84,10.68-30.99ZM81.4,64.48l-30-20.05v40l30-19.95Z"/>
</svg>